<?xml version="1.0"?>
<svg xmlns="http://www.w3.org/2000/svg" viewBox="0 0 50 50">
    <path style="line-height:normal;text-indent:0;text-align:start;text-decoration-line:none;text-decoration-style:solid;text-decoration-color:#000;text-transform:none;block-progression:tb;isolation:auto;mix-blend-mode:normal" d="M 11.976562 4.0429688 C 11.976562 4.0429688 9.7973229 4.0420755 7.3691406 5.1933594 L 7.3691406 5.1914062 C 5.5078438 6.073012 3.9433527 7.3641096 3.1875 8.4179688 A 1.0001 1.0001 0 1 0 4.8125 9.5820312 C 5.1726473 9.0798904 6.7098593 7.7183911 8.2265625 7 C 10.24438 6.0432839 11.976563 6.0429688 11.976562 6.0429688 A 1.0001 1.0001 0 1 0 11.976562 4.0429688 z M 31.865234 4.9980469 C 29.555188 4.9932656 26.778703 5.0900313 23.689453 5.4882812 C 19.583453 6.0172812 15.875562 6.8334219 12.351562 7.9824219 C 6.3685625 9.9344219 4.3827188 12.222984 3.6367188 13.083984 L 3.5664062 13.164062 C 2.0884063 14.856063 3.9673281 20.887313 3.9863281 20.945312 C 4.4293281 22.313313 5.5585 23 6.5625 23 C 6.7645 23 6.9605312 22.973016 7.1445312 22.916016 C 7.5185313 22.803016 8.9950781 22.219797 11.205078 21.341797 C 12.288078 20.911797 13.2485 20.529062 13.5625 20.414062 C 14.4145 20.100062 15.058203 19.203578 15.283203 18.017578 C 15.389203 17.461578 15.995766 14.925453 16.384766 13.314453 C 17.407766 12.903453 20.232797 11.892656 24.466797 11.347656 C 28.699797 10.802656 31.700063 11.014859 32.789062 11.130859 C 33.906063 13.007859 35.520703 15.721937 35.595703 15.835938 C 36.132703 16.659937 36.844609 17.144125 37.599609 17.203125 C 37.938609 17.230125 39.043625 17.371437 40.265625 17.523438 C 42.515625 17.805437 44.021313 17.99 44.445312 18 C 45.542313 18.021 46.885375 16.995062 46.984375 15.289062 C 46.988375 15.227063 47.250813 9.04525 45.382812 7.78125 C 45.382813 7.78125 45.199703 7.6568438 45.095703 7.5898438 C 43.934703 6.8338437 40.971672 5.2002969 34.013672 5.0292969 C 33.352672 5.0125469 32.63525 4.9996406 31.865234 4.9980469 z M 19 16 C 18.448 16 18 16.448 18 17 L 18 19.568359 C 16.987 20.534359 13.691187 23.750656 9.7421875 28.347656 C 6.4281875 32.203656 5.991 34.898391 6 37.025391 C 6.007 38.897391 6.9726719 44.903203 7.0136719 45.158203 C 7.0916719 45.643203 7.509 46 8 46 L 13 46 C 13.552 46 14 45.552 14 45 L 14 44 L 38 44 L 38 45 C 38 45.552 38.448 46 39 46 L 44 46 C 44.491 46 44.908328 45.643203 44.986328 45.158203 C 45.027328 44.903203 45.995 38.886953 46 37.001953 C 46.005 34.881953 45.564813 32.195656 42.257812 28.347656 C 38.307812 23.750656 35.012 20.534359 34 19.568359 L 34 17 C 34 16.448 33.552 16 33 16 L 30 16 C 29.448 16 29 16.448 29 17 L 29 19 L 23 19 L 23 17 C 23 16.448 22.552 16 22 16 L 19 16 z M 37.994141 19.042969 A 1.0001 1.0001 0 0 0 37.361328 20.822266 C 38.233829 21.546225 39.474968 21.908817 40.939453 21.998047 C 42.694001 22.104194 43.516873 21.903697 44.404297 21.560547 A 1.0010773 1.0010773 0 1 0 43.681641 19.693359 C 42.857064 20.012208 42.677999 20.099806 41.060547 20.001953 C 39.899032 19.931183 38.974218 19.563244 38.636719 19.283203 A 1.0001 1.0001 0 0 0 37.994141 19.042969 z M 18 25 L 22 25 L 22 27 L 18 27 L 18 25 z M 24 25 L 28 25 L 28 27 L 24 27 L 24 25 z M 30 25 L 34 25 L 34 27 L 30 27 L 30 25 z M 18 29 L 22 29 L 22 31 L 18 31 L 18 29 z M 24 29 L 28 29 L 28 31 L 24 31 L 24 29 z M 30 29 L 34 29 L 34 31 L 30 31 L 30 29 z M 18 33 L 22 33 L 22 35 L 18 35 L 18 33 z M 24 33 L 28 33 L 28 35 L 24 35 L 24 33 z M 30 33 L 34 33 L 34 35 L 30 35 L 30 33 z" font-weight="400" font-family="sans-serif" white-space="normal" overflow="visible"/>
</svg>
